<?xml version="1.0" standalone="no"?>
<!DOCTYPE svg PUBLIC "-//W3C//DTD SVG 20010904//EN"
 "http://www.w3.org/TR/2001/REC-SVG-20010904/DTD/svg10.dtd">
<svg version="1.0" xmlns="http://www.w3.org/2000/svg"
 width="512.000000pt" height="512.000000pt" viewBox="0 0 512.000000 512.000000"
 preserveAspectRatio="xMidYMid meet">

<g transform="translate(0.000000,512.000000) scale(0.100000,-0.100000)"
fill="#000000" stroke="none">
<path d="M2425 4694 c-285 -23 -540 -92 -790 -214 -877 -427 -1351 -1384
-1160 -2338 132 -651 562 -1207 1160 -1497 285 -139 539 -201 861 -212 367
-12 679 54 1009 216 665 327 1101 951 1186 1701 15 130 6 419 -16 550 -37 219
-94 398 -190 595 -306 632 -912 1077 -1606 1179 -106 16 -364 27 -454 20z
m-387 -1621 l462 -176 0 -133 0 -133 -77 -29 c-344 -133 -973 -372 -978 -372
-3 0 -5 69 -5 154 l0 155 345 112 c189 62 343 115 340 117 -2 2 -156 52 -342
111 l-338 107 -6 145 c-3 79 -4 149 -1 156 3 9 22 5 70 -13 37 -14 275 -104
530 -201z m1657 -1123 l0 -125 -557 -3 -558 -2 0 130 0 130 558 -2 557 -3 0
-125z"/>
</g>
</svg>
