<?xml version="1.0" encoding="utf-8"?><svg version="1.1" id="Layer_1" xmlns="http://www.w3.org/2000/svg" xmlns:xlink="http://www.w3.org/1999/xlink" x="0px" y="0px" width="122.88px" height="111.001px" viewBox="0 0 122.88 111.001" enable-background="new 0 0 122.88 111.001" xml:space="preserve"><g><path d="M79.823,97.959c-0.347,1.829-0.96,3.509-1.845,5.038c-0.912,1.578-2.106,2.993-3.583,4.242 c-1.476,1.248-3.085,2.188-4.82,2.817c-1.741,0.63-3.591,0.944-5.546,0.944s-3.806-0.314-5.546-0.944 c-1.737-0.629-3.345-1.569-4.82-2.817c-1.477-1.249-2.672-2.664-3.584-4.242c-0.911-1.576-1.534-3.312-1.875-5.207 c-0.165-0.926,0.451-1.813,1.378-1.979c0.03-0.006,0.3-0.031,0.3-0.033h28.292c0.946,0,1.712,0.766,1.712,1.711 C79.887,97.652,79.865,97.81,79.823,97.959L79.823,97.959z M118.581,14.727c1.405-0.647,3.069-0.034,3.717,1.371 c0.648,1.404,0.034,3.069-1.37,3.717L4.299,73.516c-1.405,0.648-3.069,0.034-3.717-1.37c-0.648-1.405-0.035-3.069,1.37-3.718 L118.581,14.727L118.581,14.727z M73.044,6.268c1.388,0.363,2.735,0.803,4.042,1.317c1.924,0.759,3.772,1.676,5.544,2.745 c0.07,0.042,0.138,0.087,0.203,0.135c1.7,1.044,3.279,2.191,4.736,3.442c1.525,1.309,2.946,2.754,4.263,4.339l0.011,0.012 l0.001-0.001c0.397,0.482,0.783,0.974,1.154,1.476l-5.211,2.4c-0.087-0.108-0.175-0.216-0.264-0.324l0.002-0.001 c-1.092-1.312-2.291-2.527-3.596-3.647c-1.263-1.084-2.599-2.06-4.009-2.927c-0.063-0.032-0.124-0.066-0.186-0.103 c-1.52-0.917-3.083-1.695-4.689-2.328c-1.552-0.612-3.136-1.094-4.749-1.439c-1.242-0.16-2.266-1.143-2.424-2.443 c-0.151-1.224-0.502-2.081-1.053-2.573c-0.554-0.494-1.441-0.746-2.662-0.757c-1.213-0.01-2.09,0.225-2.63,0.707 c-0.547,0.489-0.895,1.355-1.04,2.601l-0.002,0c-0.136,1.189-1.029,2.203-2.268,2.434c-1.748,0.331-3.433,0.807-5.063,1.425 c-1.626,0.617-3.189,1.375-4.693,2.272c-1.497,0.899-2.899,1.908-4.206,3.024c-1.305,1.115-2.516,2.341-3.633,3.676l-0.004-0.003 c-1.09,1.323-2.075,2.741-2.952,4.252c-0.862,1.487-1.616,3.071-2.257,4.751c-0.64,1.671-1.115,3.36-1.424,5.065 c-0.31,1.709-0.464,3.508-0.464,5.39v5.934l-5.614,2.584v-8.518c0-2.136,0.191-4.263,0.575-6.376 c0.382-2.112,0.945-4.138,1.687-6.074c0.738-1.936,1.624-3.791,2.651-5.563c1.021-1.76,2.188-3.434,3.493-5.016l0.016-0.018 l-0.004-0.004c1.303-1.558,2.733-3.004,4.291-4.333c1.536-1.312,3.193-2.504,4.974-3.572c1.802-1.075,3.664-1.979,5.592-2.712 c1.341-0.509,2.718-0.937,4.134-1.282c0.483-1.688,1.312-3.056,2.484-4.103C59.42,0.687,61.554-0.022,64.203,0 c2.625,0.023,4.74,0.75,6.345,2.182C71.724,3.232,72.556,4.594,73.044,6.268L73.044,6.268z M99.827,36.303 c0.215,1.597,0.321,3.225,0.321,4.883c0,4.302,0.001,6.623,0.002,6.905c0.008,2.206,0.021,4.361,0.038,6.466v0.021l0,0 c0.007,1.9,0.132,3.813,0.368,5.73c0.233,1.896,0.575,3.726,1.019,5.487h0.003c0.444,1.737,1.043,3.409,1.794,5.014 c0.772,1.651,1.713,3.267,2.817,4.846l0.005-0.003c1.091,1.549,2.457,3.077,4.097,4.587c1.693,1.561,3.658,3.088,5.896,4.585 c1.283,0.859,1.627,2.598,0.767,3.881c-0.538,0.805-1.423,1.24-2.323,1.241v0.009H89.33H64.029H38.729H13.428 c-1.55,0-2.807-1.257-2.807-2.807c0-1.019,0.543-1.911,1.355-2.402c2.273-1.538,4.226-3.062,5.855-4.57 c1.622-1.502,2.979-3.039,4.073-4.613c0.032-0.046,0.066-0.091,0.1-0.135c1.005-1.472,1.871-2.968,2.598-4.488l7.213-3.321 c-0.52,1.847-1.199,3.666-2.037,5.456c-0.885,1.892-1.938,3.731-3.158,5.519c-0.035,0.058-0.071,0.115-0.111,0.172 c-1.285,1.85-2.913,3.687-4.883,5.512l-0.072,0.065h17.175h25.301H89.33h17.145c-1.926-1.776-3.547-3.598-4.863-5.467l0.006-0.003 l-0.006-0.008c-1.292-1.847-2.395-3.743-3.305-5.687c-0.927-1.982-1.65-3.983-2.167-6.001h0.003l-0.003-0.011 c-0.507-2.01-0.894-4.071-1.152-6.178c-0.249-2.017-0.381-4.145-0.391-6.382V54.6c-0.017-2.079-0.029-4.25-0.038-6.51 c-0.016-4.183-0.023-6.467-0.023-6.905c0-0.812-0.03-1.613-0.09-2.405L99.827,36.303L99.827,36.303z"/><path fill="#FFFFFF" d="M118.445,14.433c0.784-0.361,1.64-0.371,2.39-0.095c0.75,0.277,1.396,0.84,1.757,1.624 c0.361,0.784,0.371,1.64,0.095,2.389c-0.277,0.75-0.84,1.396-1.624,1.757L4.435,73.81c-0.784,0.361-1.64,0.371-2.39,0.094 c-0.75-0.276-1.396-0.839-1.757-1.623c-0.361-0.783-0.371-1.639-0.094-2.389c0.276-0.751,0.839-1.396,1.623-1.757L118.445,14.433 L118.445,14.433z M120.612,14.946c-0.596-0.22-1.274-0.212-1.896,0.074L2.088,68.722c-0.621,0.286-1.067,0.798-1.287,1.393 c-0.219,0.595-0.212,1.274,0.074,1.896s0.798,1.067,1.393,1.287c0.596,0.219,1.274,0.212,1.896-0.075l116.629-53.701 c0.621-0.286,1.067-0.797,1.287-1.392c0.22-0.596,0.212-1.275-0.074-1.896C121.719,15.612,121.207,15.165,120.612,14.946 L120.612,14.946z"/></g></svg>