<?xml version="1.0" encoding="utf-8"?><svg version="1.1" id="Layer_1" xmlns="http://www.w3.org/2000/svg" xmlns:xlink="http://www.w3.org/1999/xlink" x="0px" y="0px" viewBox="0 0 122.88 97.68" style="enable-background:new 0 0 122.88 97.68" xml:space="preserve"><style type="text/css">.st0{fill-rule:evenodd;clip-rule:evenodd;}</style><g><path class="st0" d="M0,0h122.88v97.68H0V0L0,0z M34.56,25.4c4.41,0,7.99,3.58,7.99,7.99c0,4.42-3.58,7.99-7.99,7.99 c-4.41,0-7.99-3.58-7.99-7.99C26.57,28.97,30.15,25.4,34.56,25.4L34.56,25.4z M68.2,59.7l15.99-27.64l16.99,42.96l-79.27,0v-5.33 l6.66-0.33l6.66-16.32l3.33,11.66h9.99l8.66-22.31L68.2,59.7L68.2,59.7z M9.13,8.09h104.63v81.49H9.13V8.09L9.13,8.09z"/></g></svg>