<?xml version="1.0" standalone="no"?>
<!DOCTYPE svg PUBLIC "-//W3C//DTD SVG 20010904//EN"
 "http://www.w3.org/TR/2001/REC-SVG-20010904/DTD/svg10.dtd">
<svg version="1.0" xmlns="http://www.w3.org/2000/svg"
 width="512.000000pt" height="512.000000pt" viewBox="0 0 512.000000 512.000000"
 preserveAspectRatio="xMidYMid meet">

<g transform="translate(0.000000,512.000000) scale(0.100000,-0.100000)"
fill="#000000" stroke="none">
<path d="M240 4541 c-90 -28 -169 -96 -209 -181 l-26 -55 0 -1745 0 -1745 26
-55 c32 -66 86 -123 154 -158 l50 -27 2325 0 2325 0 52 27 c68 36 120 90 152
158 l26 55 0 1745 0 1745 -26 55 c-32 68 -84 122 -152 158 l-52 27 -2310 2
c-1270 1 -2321 -2 -2335 -6z m4550 -1493 l0 -1182 -27 26 c-238 221 -637 575
-668 591 -51 27 -154 29 -205 3 -19 -10 -189 -172 -378 -359 -203 -203 -345
-338 -350 -331 -37 54 -1292 1540 -1316 1558 -86 64 -215 61 -291 -6 -20 -17
-297 -335 -617 -707 -319 -372 -587 -683 -594 -691 -12 -12 -14 166 -14 1133
l0 1147 2230 0 2230 0 0 -1182z"/>
<path d="M3755 3806 c-119 -30 -237 -121 -290 -226 -117 -231 -23 -502 213
-613 63 -30 74 -32 182 -32 109 0 119 2 183 32 182 86 291 286 259 473 -46
260 -297 428 -547 366z"/>
</g>
</svg>
